<?xml version="1.0" encoding="UTF-8"?>
<svg width="236px" height="49px" viewBox="0 0 236 49" version="1.1" xmlns="http://www.w3.org/2000/svg" xmlns:xlink="http://www.w3.org/1999/xlink">
    <!-- Generator: Sketch 48.2 (47327) - http://www.bohemiancoding.com/sketch -->
    <title>セクション｜見出し</title>
    <desc>Created with Sketch.</desc>
    <defs></defs>
    <g id="下層｜PC｜グローバルナビ" stroke="none" stroke-width="1" fill="none" fill-rule="evenodd" transform="translate(-62.000000, -600.000000)">
        <g id="グローバルナビ" fill="#FFFFFF">
            <g id="バナー｜NRI-JOURNAL" transform="translate(62.000000, 600.000000)">
                <g id="セクション｜見出し">
                    <path d="M9.54845876,44.54 L6.09845876,44.54 C6.98845876,45.75 8.42845876,46.9 9.78845876,47.49 C9.56845876,47.68 9.27845876,48.05 9.10845876,48.29 C7.84845876,47.66 6.56845876,46.53 5.61845876,45.29 L5.61845876,48.78 L4.63845876,48.78 L4.63845876,45.33 C3.68845876,46.56 2.40845876,47.64 1.15845876,48.28 C0.998458765,48.05 0.688458765,47.69 0.478458765,47.49 C1.83845876,46.89 3.26845876,45.75 4.14845876,44.54 L0.768458765,44.54 L0.768458765,43.62 L4.63845876,43.62 L4.63845876,42.1 L1.48845876,42.1 L1.48845876,41.18 L4.63845876,41.18 L4.63845876,39.61 L5.61845876,39.61 L5.61845876,41.18 L8.84845876,41.18 L8.84845876,42.1 L5.61845876,42.1 L5.61845876,43.62 L9.54845876,43.62 L9.54845876,44.54 Z M20.3276898,44.87 L17.0076898,44.87 C17.8876898,46.01 19.2676898,47.08 20.5576898,47.64 C20.3576898,47.83 20.0576898,48.18 19.9076898,48.43 C18.6376898,47.79 17.3376898,46.66 16.3976898,45.42 L16.3976898,48.79 L15.4176898,48.79 L15.4176898,45.44 C14.4776898,46.67 13.1776898,47.77 11.9176898,48.4 C11.7676898,48.16 11.4676898,47.81 11.2576898,47.62 C12.5576898,47.07 13.9376898,46.01 14.8376898,44.87 L11.4976898,44.87 L11.4976898,43.97 L15.4176898,43.97 L15.4176898,41.65 L11.9676898,41.65 L11.9676898,40.76 L15.4176898,40.76 L15.4176898,39.61 L16.3976898,39.61 L16.3976898,40.76 L19.9276898,40.76 L19.9276898,41.65 L16.3976898,41.65 L16.3976898,43.97 L20.3276898,43.97 L20.3276898,44.87 Z M12.7176898,42.08 L13.5376898,41.77 C13.9176898,42.34 14.3076898,43.09 14.4376898,43.59 L13.5576898,43.94 C13.4376898,43.45 13.0876898,42.66 12.7176898,42.08 Z M18.2076898,43.95 L17.4076898,43.68 C17.7376898,43.15 18.1276898,42.33 18.3476898,41.74 L19.3176898,42.03 C18.9676898,42.71 18.5476898,43.47 18.2076898,43.95 Z M24.3969208,46.42 C24.8269208,46.42 25.3069208,45.78 25.7669208,44.25 C26.0169208,43.47 26.2069208,42.57 26.3069208,41.7 C24.5269208,41.99 23.4869208,43.54 23.4869208,44.76 C23.4869208,45.9 23.9969208,46.42 24.3969208,46.42 Z M27.0569208,48.33 L26.4669208,47.39 C26.8169208,47.36 27.1069208,47.31 27.3469208,47.25 C28.6169208,46.96 29.7469208,46.04 29.7469208,44.44 C29.7469208,43 28.8869208,41.87 27.3669208,41.68 C27.2269208,42.57 27.0469208,43.53 26.7769208,44.46 C26.1769208,46.48 25.3569208,47.61 24.3669208,47.61 C23.3869208,47.61 22.4869208,46.5 22.4869208,44.85 C22.4869208,42.65 24.4369208,40.74 26.9169208,40.74 C29.2969208,40.74 30.8069208,42.4 30.8069208,44.48 C30.8069208,46.55 29.4769208,47.99 27.0569208,48.33 Z M35.6861518,44.27 L35.6861518,46.32 C35.6861518,46.79 35.8961518,46.92 36.3661518,47.01 C36.6761518,47.06 37.1461518,47.08 37.6161518,47.08 C38.6661518,47.08 40.2361518,46.97 41.0661518,46.75 L41.0661518,47.9 C40.1661518,48.03 38.6561518,48.1 37.5561518,48.1 C36.9461518,48.1 36.3461518,48.07 35.9261518,48 C35.1161518,47.85 34.6561518,47.45 34.6561518,46.61 L34.6561518,41.14 C34.6561518,40.9 34.6261518,40.49 34.5861518,40.23 L35.7561518,40.23 C35.7161518,40.49 35.6861518,40.86 35.6861518,41.14 L35.6861518,43.24 C36.8861518,42.95 38.4461518,42.45 39.4261518,42.04 C39.7461518,41.9 40.0561518,41.75 40.3961518,41.54 L40.8261518,42.55 C40.4961518,42.68 40.0961518,42.86 39.7861518,42.98 C38.7061518,43.41 36.9561518,43.94 35.6861518,44.27 Z M45.5453829,40.55 C46.2553829,41.02 47.5453829,42.06 48.1053829,42.64 L47.3153829,43.45 C46.7953829,42.92 45.5553829,41.84 44.8153829,41.33 L45.5453829,40.55 Z M44.5153829,47.24 C46.1853829,46.99 47.4853829,46.43 48.4453829,45.84 C50.0553829,44.85 51.3053829,43.35 51.9153829,42.07 L52.5253829,43.16 C51.8053829,44.45 50.5753829,45.82 49.0153829,46.78 C48.0053829,47.4 46.7353829,47.99 45.1853829,48.27 L44.5153829,47.24 Z M62.5546139,44.46 L62.1046139,45.55 C61.0446139,44.98 59.4246139,44.35 58.3246139,43.99 L58.3246139,47.08 C58.3246139,47.39 58.3546139,48 58.4046139,48.36 L57.1746139,48.36 C57.2246139,48.01 57.2546139,47.47 57.2546139,47.08 L57.2546139,41.3 C57.2546139,40.98 57.2246139,40.52 57.1646139,40.18 L58.3946139,40.18 C58.3646139,40.51 58.3246139,40.95 58.3246139,41.3 L58.3246139,42.86 C59.6446139,43.26 61.5546139,43.97 62.5546139,44.46 Z M74.5238449,40.82 L73.8638449,41.1 C73.6538449,40.67 73.3338449,40.1 73.0438449,39.72 L73.6938449,39.45 C73.9538449,39.82 74.3338449,40.45 74.5238449,40.82 Z M67.9738449,40.12 L69.1438449,40.24 C69.0938449,40.45 69.0338449,40.7 68.9938449,40.92 C68.9438449,41.22 68.8538449,41.7 68.7638449,42.15 C69.1638449,42.12 69.5238449,42.1 69.7538449,42.1 C70.7038449,42.1 71.4338449,42.5 71.4338449,43.88 C71.4338449,45.05 71.2838449,46.62 70.8738449,47.47 C70.5438449,48.14 70.0338449,48.33 69.3438449,48.33 C68.9638449,48.33 68.4938449,48.26 68.1638449,48.18 L67.9938449,47.14 C68.4038449,47.26 68.9438449,47.35 69.2138449,47.35 C69.5638449,47.35 69.8438449,47.26 70.0238449,46.88 C70.3238449,46.26 70.4638449,45.02 70.4638449,43.99 C70.4638449,43.14 70.0838449,43 69.4538449,43 C69.2538449,43 68.9238449,43.02 68.5538449,43.05 C68.1938449,44.51 67.4938449,46.78 66.5138449,48.36 L65.4838449,47.95 C66.4738449,46.63 67.1838449,44.5 67.5338449,43.16 C67.0838449,43.21 66.6838449,43.25 66.4538449,43.28 C66.1938449,43.31 65.7538449,43.37 65.4738449,43.42 L65.3738449,42.34 C65.7138449,42.36 65.9938449,42.35 66.3338449,42.34 C66.6538449,42.33 67.1838449,42.29 67.7338449,42.24 C67.8738449,41.51 67.9738449,40.76 67.9738449,40.12 Z M73.3638449,41.25 L72.7038449,41.53 C73.3038449,42.43 74.0338449,44.03 74.3338449,44.88 L73.3438449,45.35 C73.0638449,44.29 72.3138449,42.55 71.6138449,41.71 L72.5438449,41.3 C72.5938449,41.37 72.6438449,41.44 72.7038449,41.52 C72.5038449,41.12 72.1838449,40.52 71.9038449,40.14 L72.5538449,39.87 C72.8038449,40.23 73.1638449,40.86 73.3638449,41.25 Z M78.2630759,43.99 L78.2630759,44.85 L82.7830759,44.85 L82.7830759,43.99 L78.2630759,43.99 Z M78.2630759,42.37 L78.2630759,43.22 L82.7830759,43.22 L82.7830759,42.37 L78.2630759,42.37 Z M78.2630759,40.77 L78.2630759,41.61 L82.7830759,41.61 L82.7830759,40.77 L78.2630759,40.77 Z M82.5030759,47.82 L83.7830759,47.82 C84.1730759,47.82 84.2330759,47.66 84.2730759,46.45 C84.4730759,46.62 84.8830759,46.76 85.1430759,46.83 C85.0330759,48.33 84.7730759,48.7 83.8730759,48.7 L82.3930759,48.7 C81.3430759,48.7 81.0830759,48.42 81.0830759,47.48 L81.0830759,45.67 L79.6430759,45.67 C79.4130759,47.26 78.7930759,48.28 76.4530759,48.81 C76.3630759,48.57 76.1130759,48.18 75.9230759,47.99 C77.9730759,47.59 78.4630759,46.86 78.6530759,45.67 L77.3630759,45.67 L77.3630759,39.94 L83.7230759,39.94 L83.7230759,45.67 L82.0330759,45.67 L82.0330759,47.48 C82.0330759,47.78 82.1030759,47.82 82.5030759,47.82 Z M86.9823069,42.67 C87.3423069,42.6 87.7623069,42.48 88.1323069,42.37 C88.9323069,42.12 90.9023069,41.41 92.3623069,41.41 C94.0623069,41.41 95.4123069,42.4 95.4123069,44.13 C95.4123069,46.45 93.1523069,47.73 89.9023069,47.9 L89.4523069,46.85 C92.0823069,46.79 94.3023069,46.01 94.3023069,44.11 C94.3023069,43.12 93.5923069,42.35 92.3223069,42.35 C90.7723069,42.35 88.3323069,43.4 87.4323069,43.77 L86.9823069,42.67 Z M100.381538,40.07 L101.551538,40.19 C101.501538,40.4 101.451538,40.65 101.411538,40.87 C101.351538,41.17 101.261538,41.65 101.171538,42.1 C101.581538,42.07 101.931538,42.05 102.161538,42.05 C103.121538,42.05 103.851538,42.45 103.851538,43.83 C103.851538,45 103.701538,46.57 103.281538,47.42 C102.961538,48.09 102.451538,48.28 101.751538,48.28 C101.381538,48.28 100.901538,48.21 100.581538,48.13 L100.411538,47.09 C100.811538,47.21 101.361538,47.3 101.631538,47.3 C101.981538,47.3 102.261538,47.21 102.441538,46.83 C102.741538,46.21 102.881538,44.97 102.881538,43.94 C102.881538,43.09 102.501538,42.95 101.871538,42.95 C101.671538,42.95 101.341538,42.97 100.971538,43 C100.601538,44.46 99.901538,46.73 98.931538,48.31 L97.901538,47.9 C98.881538,46.58 99.591538,44.45 99.941538,43.11 C99.491538,43.16 99.091538,43.2 98.871538,43.23 C98.611538,43.26 98.161538,43.32 97.881538,43.37 L97.791538,42.29 C98.121538,42.31 98.411538,42.3 98.741538,42.29 C99.061538,42.28 99.591538,42.24 100.151538,42.19 C100.291538,41.46 100.391538,40.71 100.381538,40.07 Z M104.031538,41.58 L104.961538,41.18 C105.571538,42.01 106.421538,43.85 106.741538,44.78 L105.761538,45.25 C105.481538,44.2 104.731538,42.43 104.031538,41.58 Z M112.790769,47.55 C113.040769,47.55 113.270769,47.54 113.490769,47.51 C113.410769,46.78 112.980769,46.3 112.320769,46.3 C111.910769,46.3 111.610769,46.54 111.610769,46.85 C111.610769,47.28 112.120769,47.55 112.790769,47.55 Z M114.880769,40.38 L115.420769,41.1 C115.220769,41.23 114.990769,41.38 114.810769,41.51 C114.300769,41.87 113.100769,42.92 112.400769,43.5 C112.800769,43.37 113.180769,43.33 113.570769,43.33 C115.230769,43.33 116.460769,44.35 116.460769,45.73 C116.460769,47.32 115.190769,48.45 112.970769,48.45 C111.600769,48.45 110.680769,47.83 110.680769,46.94 C110.680769,46.21 111.350769,45.53 112.320769,45.53 C113.550769,45.53 114.260769,46.32 114.400769,47.27 C115.070769,46.97 115.440769,46.44 115.440769,45.72 C115.440769,44.79 114.500769,44.13 113.290769,44.13 C111.710769,44.13 110.770769,44.87 109.600769,46.11 L108.870769,45.37 C109.640769,44.74 110.880769,43.7 111.460769,43.22 C112.010769,42.76 113.150769,41.81 113.650769,41.38 C113.130769,41.4 111.440769,41.47 110.920769,41.5 C110.670769,41.52 110.410769,41.54 110.190769,41.57 L110.160769,40.54 C110.410769,40.57 110.710769,40.59 110.950769,40.59 C111.470769,40.59 113.710769,40.53 114.250769,40.48 C114.590769,40.44 114.770769,40.42 114.880769,40.38 Z M124.65,42.99 L124.65,47.19 C124.65,47.6 124.67,48.15 124.72,48.37 L123.48,48.37 C123.51,48.15 123.54,47.6 123.54,47.19 L123.54,43.63 C122.49,44.19 121.16,44.75 119.92,45.1 L119.35,44.13 C121.06,43.74 122.75,43 123.86,42.31 C124.87,41.68 125.91,40.79 126.47,40.07 L127.32,40.84 C126.6,41.56 125.66,42.34 124.65,42.99 Z M137.529231,40.75 C137.379231,41.06 137.259231,41.45 137.159231,41.73 C136.759231,42.85 136.129231,44.33 135.299231,45.38 C134.419231,46.49 133.009231,47.65 131.529231,48.26 L130.629231,47.34 C132.159231,46.81 133.519231,45.81 134.429231,44.71 C135.369231,43.55 136.029231,41.87 136.309231,40.43 L137.529231,40.75 Z M147.128462,41.15 C147.388462,41.54 147.838462,42.28 148.068462,42.74 L147.348462,43.06 C147.078462,42.49 146.768462,41.93 146.428462,41.45 L147.128462,41.15 Z M148.438462,40.63 C148.708462,41 149.178462,41.73 149.408462,42.19 L148.698462,42.53 C148.418462,41.96 148.088462,41.42 147.738462,40.95 L148.438462,40.63 Z M140.598462,45.28 C140.868462,45.05 141.068462,44.85 141.358462,44.57 C141.818462,44.1 142.648462,43.05 143.308462,42.27 C143.868462,41.61 144.338462,41.54 145.098462,42.18 C145.738462,42.7 146.528462,43.55 147.158462,44.23 C147.828462,44.95 148.868462,46.06 149.588462,46.91 L148.758462,47.81 C148.088462,46.95 147.178462,45.89 146.558462,45.17 C145.898462,44.42 145.058462,43.51 144.648462,43.16 C144.268462,42.84 144.108462,42.84 143.798462,43.23 C143.348462,43.78 142.558462,44.83 142.128462,45.38 C141.918462,45.67 141.688462,45.99 141.528462,46.22 L140.598462,45.28 Z M151.887693,44.77 L151.887693,43.54 C152.207693,43.57 152.827693,43.6 153.367693,43.6 L158.797693,43.6 C159.287693,43.6 159.677693,43.56 159.917693,43.54 L159.917693,44.77 C159.697693,44.76 159.247693,44.73 158.807693,44.73 L153.367693,44.73 C152.807693,44.73 152.217693,44.75 151.887693,44.77 Z M164.516924,40.21 C165.136924,40.56 166.266924,41.3 166.736924,41.64 L166.146924,42.5 C165.636924,42.13 164.566924,41.42 163.946924,41.07 L164.516924,40.21 Z M162.866924,47.34 C163.976924,47.15 165.196924,46.78 166.246924,46.2 C167.916924,45.25 169.266924,43.91 170.076924,42.49 L170.676924,43.55 C169.786924,44.91 168.396924,46.19 166.776924,47.13 C165.766924,47.72 164.366924,48.2 163.456924,48.37 L162.866924,47.34 Z M162.996924,42.48 C163.626924,42.82 164.766924,43.52 165.236924,43.85 L164.656924,44.74 C164.126924,44.36 163.066924,43.68 162.426924,43.34 L162.996924,42.48 Z M180.066155,48.64 L179.066155,48.64 C179.076155,48.55 179.076155,48.39 179.076155,48.24 L175.156155,48.24 C174.856155,48.24 174.486155,48.26 174.316155,48.26 L174.316155,47.28 C174.486155,47.3 174.806155,47.32 175.156155,47.32 L179.076155,47.32 L179.076155,45.74 L175.656155,45.74 C175.286155,45.74 174.886155,45.74 174.666155,45.76 L174.666155,44.81 C174.896155,44.82 175.286155,44.84 175.646155,44.84 L179.076155,44.84 L179.076155,43.37 L175.546155,43.37 C175.236155,43.37 174.636155,43.39 174.436155,43.41 L174.436155,42.44 C174.656155,42.47 175.236155,42.48 175.546155,42.48 L179.376155,42.48 C179.606155,42.48 179.916155,42.47 180.056155,42.47 C180.046155,42.59 180.046155,42.85 180.046155,43.05 L180.046155,48.04 C180.046155,48.2 180.056155,48.48 180.066155,48.64 Z M185.345386,40.55 C186.055386,41.02 187.345386,42.06 187.905386,42.64 L187.115386,43.45 C186.595386,42.92 185.355386,41.84 184.615386,41.33 L185.345386,40.55 Z M184.315386,47.24 C185.985386,46.99 187.285386,46.43 188.245386,45.84 C189.855386,44.85 191.105386,43.35 191.715386,42.07 L192.325386,43.16 C191.605386,44.45 190.375386,45.82 188.815386,46.78 C187.805386,47.4 186.535386,47.99 184.985386,48.27 L184.315386,47.24 Z M202.384617,41.03 L203.174617,41.68 C203.054617,41.81 202.954617,41.93 202.884617,42.03 C202.164617,43.21 200.884617,44.83 199.354617,46.03 C199.944617,46.62 200.594617,47.32 200.994617,47.8 L200.074617,48.54 C199.674617,48 198.864617,47.1 198.224617,46.44 C197.624617,45.85 196.534617,44.89 195.974617,44.5 L196.794617,43.83 C197.174617,44.11 197.934617,44.72 198.594617,45.31 C199.914617,44.3 200.964617,42.96 201.454617,42.1 L195.834617,42.1 C195.434617,42.1 194.964617,42.14 194.754617,42.16 L194.754617,41.04 C195.024617,41.08 195.494617,41.12 195.834617,41.12 L201.614617,41.12 C201.934617,41.12 202.214617,41.09 202.384617,41.03 Z M212.963848,41.46 L212.303848,41.75 C212.103848,41.34 211.773848,40.74 211.503848,40.36 L212.153848,40.09 C212.403848,40.45 212.763848,41.07 212.963848,41.46 Z M209.433848,42 L211.593848,42 C211.853848,42 212.083848,41.97 212.283848,41.94 L212.973848,42.28 C212.943848,42.45 212.923848,42.66 212.913848,42.79 C212.883848,43.8 212.753848,46.66 212.313848,47.64 C212.103848,48.1 211.763848,48.32 211.153848,48.32 C210.613848,48.32 210.023848,48.28 209.523848,48.25 L209.403848,47.2 C209.913848,47.27 210.443848,47.32 210.853848,47.32 C211.153848,47.32 211.313848,47.23 211.423848,46.98 C211.763848,46.28 211.893848,44.02 211.893848,42.94 L209.333848,42.94 C208.963848,45.72 207.973848,47.25 206.253848,48.46 L205.333848,47.71 C205.693848,47.52 206.133848,47.21 206.483848,46.87 C207.453848,45.96 208.063848,44.75 208.313848,42.94 L206.793848,42.94 C206.423848,42.94 205.953848,42.95 205.573848,42.98 L205.573848,41.93 C205.953848,41.97 206.403848,42 206.793848,42 L208.403848,42 C208.423848,41.7 208.433848,41.38 208.433848,41.04 C208.433848,40.82 208.403848,40.41 208.363848,40.18 L209.533848,40.18 C209.513848,40.41 209.493848,40.78 209.483848,41.02 C209.473848,41.36 209.453848,41.69 209.433848,42 Z M212.643848,39.94 L213.283848,39.67 C213.553848,40.04 213.923848,40.67 214.113848,41.03 L213.463848,41.31 C213.243848,40.89 212.923848,40.31 212.643848,39.94 Z M222.543079,40.44 C222.803079,40.83 223.233079,41.53 223.463079,41.99 L222.763079,42.3 C222.493079,41.73 222.213079,41.21 221.863079,40.73 L222.543079,40.44 Z M223.883079,39.96 C224.163079,40.33 224.583079,41.02 224.833079,41.48 L224.133079,41.79 C223.853079,41.22 223.543079,40.72 223.193079,40.25 L223.883079,39.96 Z M218.243079,40.28 C218.863079,40.62 219.983079,41.36 220.463079,41.7 L219.863079,42.56 C219.353079,42.19 218.283079,41.49 217.673079,41.14 L218.243079,40.28 Z M216.583079,47.4 C217.693079,47.21 218.913079,46.84 219.963079,46.26 C221.633079,45.31 222.993079,43.97 223.793079,42.55 L224.403079,43.61 C223.503079,44.97 222.113079,46.25 220.493079,47.19 C219.483079,47.78 218.083079,48.26 217.173079,48.43 L216.583079,47.4 Z M216.723079,42.54 C217.343079,42.88 218.483079,43.58 218.953079,43.91 L218.373079,44.8 C217.853079,44.42 216.783079,43.74 216.153079,43.4 L216.723079,42.54 Z M228.42231,40.55 C229.13231,41.02 230.42231,42.06 230.98231,42.64 L230.19231,43.45 C229.67231,42.92 228.43231,41.84 227.69231,41.33 L228.42231,40.55 Z M227.39231,47.24 C229.06231,46.99 230.36231,46.43 231.32231,45.84 C232.93231,44.85 234.18231,43.35 234.79231,42.07 L235.40231,43.16 C234.68231,44.45 233.45231,45.82 231.89231,46.78 C230.88231,47.4 229.61231,47.99 228.06231,48.27 L227.39231,47.24 Z" id="未来のヒントが見つかるイノベーションマガ"></path>
                    <path d="M45,25.848 L45,0.216 L48.528,0.216 L54.072,15.66 L54.144,15.66 L54.144,0.216 L57.816,0.216 L57.816,25.848 L54.36,25.848 L48.744,10.44 L48.672,10.44 L48.672,25.848 L45,25.848 Z M64.8,3.672 L64.8,11.664 L66.888,11.664 C67.5360032,11.664 68.0519981,11.5740009 68.436,11.394 C68.8200019,11.2139991 69.1199989,10.9560017 69.336,10.62 C69.528001,10.2839983 69.6599996,9.87000246 69.732,9.378 C69.8040004,8.88599754 69.84,8.31600324 69.84,7.668 C69.84,7.01999676 69.8040004,6.45000246 69.732,5.958 C69.6599996,5.46599754 69.5160011,5.0400018 69.3,4.68 C68.8439977,4.00799664 67.9800064,3.672 66.708,3.672 L64.8,3.672 Z M61.128,25.848 L61.128,0.216 L67.032,0.216 C71.3520216,0.216 73.512,2.72397492 73.512,7.74 C73.512,9.25200756 73.2780023,10.5359947 72.81,11.592 C72.3419977,12.6480053 71.5200059,13.4999968 70.344,14.148 L74.304,25.848 L70.416,25.848 L66.996,14.904 L64.8,14.904 L64.8,25.848 L61.128,25.848 Z M76.572,25.848 L76.572,0.216 L80.244,0.216 L80.244,25.848 L76.572,25.848 Z M99.036,0.216 L99.036,19.8 C99.036,21.5520088 98.4840055,23.0159941 97.38,24.192 C96.8279972,24.7680029 96.1740038,25.2239983 95.418,25.56 C94.6619962,25.8960017 93.780005,26.064 92.772,26.064 C91.5959941,26.064 90.6180039,25.8060026 89.838,25.29 C89.0579961,24.7739974 88.4400023,24.2640025 87.984,23.76 L90.864,21.456 C91.1280013,21.7200013 91.4339983,21.9419991 91.782,22.122 C92.1300017,22.3020009 92.4959981,22.392 92.88,22.392 C93.0960011,22.392 93.3479986,22.3500004 93.636,22.266 C93.9240014,22.1819996 94.1999987,22.0200012 94.464,21.78 C94.7280013,21.5639989 94.9439992,21.258002 95.112,20.862 C95.2800008,20.465998 95.364,19.9440032 95.364,19.296 L95.364,0.216 L99.036,0.216 Z M102.276,6.264 C102.276,5.23199484 102.455998,4.32000396 102.816,3.528 C103.176002,2.73599604 103.655997,2.07600264 104.256,1.548 C104.832003,1.04399748 105.485996,0.66000132 106.218,0.396 C106.950004,0.13199868 107.687996,0 108.432,0 C109.176004,0 109.913996,0.13199868 110.646,0.396 C111.378004,0.66000132 112.043997,1.04399748 112.644,1.548 C113.220003,2.07600264 113.687998,2.73599604 114.048,3.528 C114.408002,4.32000396 114.588,5.23199484 114.588,6.264 L114.588,19.8 C114.588,20.8800054 114.408002,21.8039962 114.048,22.572 C113.687998,23.3400038 113.220003,23.9759975 112.644,24.48 C112.043997,25.0080026 111.378004,25.4039987 110.646,25.668 C109.913996,25.9320013 109.176004,26.064 108.432,26.064 C107.687996,26.064 106.950004,25.9320013 106.218,25.668 C105.485996,25.4039987 104.832003,25.0080026 104.256,24.48 C103.655997,23.9759975 103.176002,23.3400038 102.816,22.572 C102.455998,21.8039962 102.276,20.8800054 102.276,19.8 L102.276,6.264 Z M105.948,19.8 C105.948,20.6880044 106.193998,21.3419979 106.686,21.762 C107.178002,22.1820021 107.759997,22.392 108.432,22.392 C109.104003,22.392 109.685998,22.1820021 110.178,21.762 C110.670002,21.3419979 110.916,20.6880044 110.916,19.8 L110.916,6.264 C110.916,5.37599556 110.670002,4.7220021 110.178,4.302 C109.685998,3.8819979 109.104003,3.672 108.432,3.672 C107.759997,3.672 107.178002,3.8819979 106.686,4.302 C106.193998,4.7220021 105.948,5.37599556 105.948,6.264 L105.948,19.8 Z M129.708,0.216 L129.708,20.088 C129.708,20.9280042 129.558001,21.7019965 129.258,22.41 C128.957998,23.1180035 128.532003,23.7479972 127.98,24.3 C127.427997,24.8520028 126.792004,25.2839984 126.072,25.596 C125.351996,25.9080016 124.584004,26.064 123.768,26.064 C122.951996,26.064 122.190004,25.9080016 121.482,25.596 C120.773996,25.2839984 120.144003,24.8520028 119.592,24.3 C119.039997,23.7479972 118.608002,23.1180035 118.296,22.41 C117.983998,21.7019965 117.828,20.9280042 117.828,20.088 L117.828,0.216 L121.5,0.216 L121.5,19.728 C121.5,20.6400046 121.715998,21.3119978 122.148,21.744 C122.580002,22.1760022 123.119997,22.392 123.768,22.392 C124.416003,22.392 124.955998,22.1760022 125.388,21.744 C125.820002,21.3119978 126.036,20.6400046 126.036,19.728 L126.036,0.216 L129.708,0.216 Z M136.836,3.672 L136.836,11.664 L138.924,11.664 C139.572003,11.664 140.087998,11.5740009 140.472,11.394 C140.856002,11.2139991 141.155999,10.9560017 141.372,10.62 C141.564001,10.2839983 141.696,9.87000246 141.768,9.378 C141.84,8.88599754 141.876,8.31600324 141.876,7.668 C141.876,7.01999676 141.84,6.45000246 141.768,5.958 C141.696,5.46599754 141.552001,5.0400018 141.336,4.68 C140.879998,4.00799664 140.016006,3.672 138.744,3.672 L136.836,3.672 Z M133.164,25.848 L133.164,0.216 L139.068,0.216 C143.388022,0.216 145.548,2.72397492 145.548,7.74 C145.548,9.25200756 145.314002,10.5359947 144.846,11.592 C144.377998,12.6480053 143.556006,13.4999968 142.38,14.148 L146.34,25.848 L142.452,25.848 L139.032,14.904 L136.836,14.904 L136.836,25.848 L133.164,25.848 Z M148.356,25.848 L148.356,0.216 L151.884,0.216 L157.428,15.66 L157.5,15.66 L157.5,0.216 L161.172,0.216 L161.172,25.848 L157.716,25.848 L152.1,10.44 L152.028,10.44 L152.028,25.848 L148.356,25.848 Z M171.9,16.884 L170.1,7.596 L170.028,7.596 L168.228,16.884 L171.9,16.884 Z M162.828,25.848 L168.552,0.216 L171.612,0.216 L177.336,25.848 L173.664,25.848 L172.584,20.34 L167.58,20.34 L166.5,25.848 L162.828,25.848 Z M179.136,25.848 L179.136,0.216 L182.808,0.216 L182.808,22.176 L190.08,22.176 L190.08,25.848 L179.136,25.848 Z" id="NRI-JOURNAL"></path>
                </g>
            </g>
        </g>
    </g>
</svg>