<?xml version="1.0" encoding="UTF-8"?>
<svg width="140px" height="86px" viewBox="0 0 140 86" version="1.1" xmlns="http://www.w3.org/2000/svg" xmlns:xlink="http://www.w3.org/1999/xlink">
    <!-- Generator: Sketch 48.2 (47327) - http://www.bohemiancoding.com/sketch -->
    <title>セクション｜見出し</title>
    <desc>Created with Sketch.</desc>
    <defs></defs>
    <g id="下層｜PC｜グローバルナビ" stroke="none" stroke-width="1" fill="none" fill-rule="evenodd" transform="translate(-110.000000, -716.000000)">
        <g id="グローバルナビ" fill="#FFFFFF">
            <g id="バナー｜NRI-people" transform="translate(110.000000, 716.000000)">
                <g id="Group" transform="translate(2.000000, 0.000000)">
                    <polygon id="Fill-1" points="15.4510403 0 15.4510403 0.75426576 19.1758446 0.75426576 19.1758446 22.4228989 4.58702758 0 0 0 0 0.75426576 3.44889292 0.75426576 3.44889292 23.2457342 0 23.2457342 0 24 8.00143157 24 8.00143157 23.2457342 4.27662722 23.2457342 4.27662722 0.925689797 19.2799501 24 20.0035789 24 20.0035789 0.75426576 23.3145161 0.75426576 23.3145161 0"></polygon>
                    <path d="M39.7400508,12.4460199 C42.7673599,12.4460199 44.1940228,11.0403428 44.1940228,8.05756461 L44.1940228,5.143356 C44.1940228,2.16057776 42.7673599,0.75426576 39.7400508,0.75426576 L30.4841402,0.75426576 L30.4841402,12.4460199 L39.7400508,12.4460199 Z M48.0564516,24 L44.1940228,24 L38.5917611,13.2002857 L30.4841402,13.2002857 L30.4841402,23.2457342 L34.2421791,23.2457342 L34.2421791,24 L26.1693548,24 L26.1693548,23.2457342 L29.6490205,23.2457342 L29.6490205,0.75426576 L26.1693548,0.75426576 L26.1693548,0 L39.7400508,0 C43.3241064,0 45.0291425,1.67995556 45.0291425,5.21192561 L45.0291425,7.988995 C45.0291425,11.5203301 43.3241064,13.2002857 39.7400508,13.2002857 L39.4616775,13.2002857 L44.7159726,23.2457342 L48.0564516,23.2457342 L48.0564516,24 Z" id="Fill-2"></path>
                    <polygon id="Fill-5" points="55.1389476 23.2457342 59 23.2457342 59 24 50.4354839 24 50.4354839 23.2457342 54.2965362 23.2457342 54.2965362 0.75426576 50.4354839 0.75426576 50.4354839 0 59 0 59 0.75426576 55.1389476 0.75426576"></polygon>
                </g>
                <g id="Group-19" transform="translate(61.000000, 12.000000)">
                    <path d="M13.0584648,18.3655873 C12.826304,18.3655873 12.3877781,18.0862222 12.1562621,17.7814603 C8.75123702,21.2347937 5.63060888,24.7389206 1.4523593,29.6652698 C1.27178978,29.8932063 1.06542462,30.0970159 0.911295645,30.0970159 C0.420533501,30.0970159 0.0342437186,29.208127 0.0342437186,28.5478095 C0.0342437186,28.2938413 0.0858350084,28.1414603 0.188372697,27.9890794 C7.07516499,20.1173333 12.2072085,14.328127 22.3436072,5.56749206 C22.4209941,5.49130159 22.6525101,5.31352381 22.7821332,5.31352381 C23.1174765,5.31352381 23.5553576,5.84685714 23.5553576,6.38019048 C23.5553576,6.65955556 23.4786156,6.88812698 23.2458099,7.09066667 C19.4286993,10.6970159 16.4112538,13.5401905 13.6517647,16.3084444 C19.8420745,14.4805079 30.3131717,10.1636825 30.3131717,5.03415873 C30.3131717,3.23098413 28.5848635,2.03796825 25.9801482,2.03796825 C21.0280293,2.03796825 15.4832554,4.06907937 11.6403492,6.53193651 C11.5629623,6.58273016 11.2534146,6.78653968 11.2534146,6.86273016 C11.2534146,6.93892063 11.4333392,7.09066667 11.4333392,7.29447619 C11.4333392,7.39606349 11.3565972,7.54844444 11.1237915,7.70019048 C9.86044975,8.56368254 8.00380821,9.27479365 7.38471273,9.27479365 C6.81720854,9.27479365 6.63663903,8.76685714 6.63663903,8.53828571 C6.63663903,5.84685714 17.5204665,0.336380952 25.6190092,0.336380952 C29.4361198,0.336380952 32.1956089,2.03796825 32.1956089,4.67860317 C32.1956089,12.424 14.6835905,18.3655873 13.0584648,18.3655873" id="Fill-7"></path>
                    <path d="M24.8475905,22.0219683 C23.9969791,22.0219683 21.9849188,23.3419683 21.0304799,24.7387937 C22.836175,24.7387937 25.3377077,23.2911746 25.3377077,22.4791111 C25.3377077,22.2499048 25.2087295,22.0219683 24.8475905,22.0219683 M20.6693409,28.8016508 C19.3028166,28.8016508 18.2967864,27.8365714 18.2967864,26.7445079 C18.2967864,23.799746 22.6556055,20.599746 25.4924816,20.599746 C26.2663509,20.599746 26.8338551,21.0314921 26.8338551,21.8949841 C26.8338551,24.0022857 23.713227,25.8054603 20.514567,25.856254 C20.4887714,25.9826032 20.4887714,26.0841905 20.4887714,26.1610159 C20.4887714,26.9483175 20.8241147,27.2270476 21.5463928,27.2270476 C24.6670209,27.2270476 28.7678836,23.799746 29.3095921,23.3419683 C29.4901616,23.1902222 29.5675486,23.1648254 29.6449355,23.1648254 C29.9544832,23.1648254 30.3672136,23.5959365 30.3672136,23.9514921 C30.3672136,24.0276825 30.3414179,24.1546667 30.1608484,24.3076825 C29.6191399,24.7641905 24.8217948,28.8016508 20.6693409,28.8016508" id="Fill-9"></path>
                    <path d="M34.2882161,23.9514921 C34.2882161,23.0886349 34.726742,22.4029206 35.3458375,22.1991111 C35.1394724,22.0981587 34.8815159,22.0219683 34.5461725,22.0219683 C33.6949162,22.0219683 32.5083166,22.4791111 31.3223618,23.3419683 C30.2647404,24.103873 29.3876884,25.2467302 29.3876884,26.1349841 C29.3876884,26.8213333 29.9036013,27.2270476 30.5742881,27.2270476 C31.2707705,27.2270476 32.2245645,26.872127 33.4627554,26.0587937 C33.8754858,25.7292698 34.2882161,25.4245079 34.5461725,25.1451429 C34.365603,24.8149841 34.2882161,24.4086349 34.2882161,23.9514921 M29.9036013,28.9540317 C28.3565075,28.9540317 27.5826382,28.1419683 27.5826382,26.5667302 C27.5826382,23.7235556 32.0704355,20.3457778 35.0620854,20.3457778 C36.6349749,20.3457778 37.2024791,21.183873 37.2024791,22.2753016 C37.2024791,22.935619 36.9961139,23.5959365 36.6349749,24.3076825 C36.8155444,24.3832381 36.9961139,24.4086349 37.2282747,24.4086349 C38.1053266,24.4086349 38.879196,23.9514921 39.601474,23.3419683 C39.7820436,23.1902222 39.8594305,23.1648254 39.9361725,23.1648254 C40.2457203,23.1648254 40.6584506,23.5959365 40.6584506,23.9514921 C40.6584506,24.0276825 40.6326549,24.1546667 40.4527303,24.3076825 C39.3693132,25.2213333 38.1569179,26.2118095 36.7381575,26.2118095 C36.2486851,26.2118095 35.8611055,26.1349841 35.5515578,25.9826032 C34.0560553,27.6841905 31.8382747,28.9540317 29.9036013,28.9540317" id="Fill-11"></path>
                    <path d="M46.2568149,22.2500952 C45.1218065,22.2500952 43.5489171,23.3421587 41.6142437,25.1199365 C41.4594698,25.4748571 41.3820829,25.8056508 41.3820829,26.084381 C41.3820829,26.7954921 41.8206089,27.4050159 42.7234564,27.4050159 C43.703691,27.4050159 44.9154414,26.5923175 45.5087412,26.084381 C46.0762454,25.6272381 47.2628451,24.3827937 47.2628451,23.3421587 C47.2628451,22.7834286 46.901706,22.2500952 46.2568149,22.2500952 M26.1394363,38.4507302 C30.7304162,33.4742222 35.7341265,28.8012063 39.9639673,24.4589841 C39.7318065,24.3580317 39.3964631,24.0532698 39.3964631,23.6977143 C39.3964631,23.5707302 39.4222588,23.4945397 39.6028283,23.3421587 C40.143892,22.8850159 42.9814129,20.3713651 45.0960109,18.1624762 C45.1733978,18.0856508 45.2507848,18.0348571 45.3546122,18.0348571 C45.6893107,18.0348571 46.0246541,18.4412063 46.0246541,18.8989841 C46.0246541,19.0507302 45.9988585,19.2539048 45.8440846,19.4577143 C45.0960109,20.4221587 44.425969,21.1834286 43.7810779,21.9713651 C44.9154414,21.1834286 46.2568149,20.6500952 47.3660276,20.6500952 C48.6042186,20.6500952 49.2233141,21.8183492 49.2233141,22.6316825 C49.2233141,24.027873 48.0367144,25.7034286 46.5141265,26.8970794 C48.7583476,26.1351746 50.5898384,24.8659683 52.3955335,23.3421587 C52.5754581,23.1897778 52.6270494,23.164381 52.730232,23.164381 C53.0404246,23.164381 53.4525101,23.596127 53.4525101,23.9516825 C53.4525101,24.027873 53.4267144,24.1548571 53.2461449,24.3072381 C49.9965385,27.0500952 45.9988585,28.9542222 42.3623174,28.9542222 C41.0983308,28.9542222 39.8865804,28.4208889 39.8865804,26.7954921 C39.3706675,27.379619 38.7773677,27.963746 38.2098635,28.5732698 C35.1408266,31.9250159 30.6530293,36.3173968 26.9391013,39.7713651 C26.7327362,39.923746 26.603758,39.9999365 26.4489841,39.9999365 C26.1136407,39.9999365 25.9072755,39.5675556 25.9072755,39.1364444 C25.9072755,38.907873 25.9846625,38.6285079 26.1394363,38.4507302" id="Fill-13"></path>
                    <path d="M63.9258643,11.9915556 C60.6504623,15.0899683 58.0708978,17.8823492 56.2658476,20.3458413 C60.0571625,17.2988571 63.7194992,14.0734603 67.3553953,10.747746 C70.7862161,7.59853968 73.1071792,5.31346032 74.0616181,4.01822222 C74.1905963,3.84044444 74.2679832,3.73949206 74.2679832,3.66330159 C74.2679832,3.58711111 74.216392,3.56171429 74.139005,3.56171429 C74.0100268,3.56171429 73.8552529,3.61250794 73.6230921,3.73949206 C72.7976315,4.1712381 69.4454874,6.73568254 63.9258643,11.9915556 M67.9744908,11.9407619 C63.6421122,15.8258413 59.1801106,19.6093333 54.3569698,23.3674286 C54.0222714,24.180127 53.8152613,24.8912381 53.8152613,25.4245714 C53.8152613,25.9325079 54.0222714,26.6429841 54.7181089,26.6429841 C57.2202864,26.6429841 60.5214841,23.7744127 61.0631926,23.3166349 C61.2179665,23.1902857 61.2947085,23.1648889 61.3720955,23.1648889 C61.6822881,23.1648889 62.0943735,23.596 62.0943735,23.9515556 C62.0943735,24.027746 62.0685779,24.1547302 61.8880084,24.3071111 C61.3462998,24.764254 56.8585025,28.7763175 53.6088961,28.7763175 C52.3197588,28.7763175 51.5974807,27.6086984 51.5974807,26.3896508 C51.5974807,21.9204444 57.5291893,15.7496508 62.6102864,10.7731429 C68.541995,4.98330159 74.4227571,1.02266667 76.1504204,1.02266667 C76.5115595,1.02266667 76.6656884,1.32679365 76.6656884,1.73314286 C76.6656884,3.81504762 72.7466851,7.67473016 67.9744908,11.9407619" id="Fill-15"></path>
                    <path d="M65.6029037,22.0219683 C64.7522923,22.0219683 62.740232,23.3419683 61.7857931,24.7387937 C63.5914883,24.7387937 66.0930209,23.2911746 66.0930209,22.4791111 C66.0930209,22.2499048 65.9646876,22.0219683 65.6029037,22.0219683 M61.6310193,28.8016508 C60.0574849,28.8016508 59.0520997,27.8365714 59.0520997,26.7445079 C59.0520997,23.799746 63.4109188,20.599746 66.2477948,20.599746 C67.0216642,20.599746 67.5891683,21.0314921 67.5891683,21.8949841 C67.5891683,24.0022857 64.5452822,25.8054603 61.2698802,25.856254 C61.2440846,25.9826032 61.2440846,26.0841905 61.2440846,26.1610159 C61.2440846,26.9483175 61.5800729,27.2270476 62.301706,27.2270476 C63.7978534,27.2270476 65.3455921,26.1610159 65.8608601,25.7292698 C65.938892,25.6530794 66.0162789,25.6276825 66.1188166,25.6276825 C66.45416,25.6276825 66.8410946,26.0587937 66.8410946,26.3895873 C66.8410946,26.5165714 66.7895034,26.592127 66.7121164,26.6683175 C65.6802906,27.6086349 64.0816055,28.8016508 61.6310193,28.8016508" id="Fill-17"></path>
                </g>
                <path d="M9.41,66.54 L5.96,66.54 C6.85,67.75 8.29,68.9 9.65,69.49 C9.43,69.68 9.14,70.05 8.97,70.29 C7.71,69.66 6.43,68.53 5.48,67.29 L5.48,70.78 L4.5,70.78 L4.5,67.33 C3.55,68.56 2.27,69.64 1.02,70.28 C0.86,70.05 0.55,69.69 0.34,69.49 C1.7,68.89 3.13,67.75 4.01,66.54 L0.63,66.54 L0.63,65.62 L4.5,65.62 L4.5,64.1 L1.35,64.1 L1.35,63.18 L4.5,63.18 L4.5,61.61 L5.48,61.61 L5.48,63.18 L8.71,63.18 L8.71,64.1 L5.48,64.1 L5.48,65.62 L9.41,65.62 L9.41,66.54 Z M19.42,66.87 L16.1,66.87 C16.98,68.01 18.36,69.08 19.65,69.64 C19.45,69.83 19.15,70.18 19,70.43 C17.73,69.79 16.43,68.66 15.49,67.42 L15.49,70.79 L14.51,70.79 L14.51,67.44 C13.57,68.67 12.27,69.77 11.01,70.4 C10.86,70.16 10.56,69.81 10.35,69.62 C11.65,69.07 13.03,68.01 13.93,66.87 L10.59,66.87 L10.59,65.97 L14.51,65.97 L14.51,63.65 L11.06,63.65 L11.06,62.76 L14.51,62.76 L14.51,61.61 L15.49,61.61 L15.49,62.76 L19.02,62.76 L19.02,63.65 L15.49,63.65 L15.49,65.97 L19.42,65.97 L19.42,66.87 Z M11.81,64.08 L12.63,63.77 C13.01,64.34 13.4,65.09 13.53,65.59 L12.65,65.94 C12.53,65.45 12.18,64.66 11.81,64.08 Z M17.3,65.95 L16.5,65.68 C16.83,65.15 17.22,64.33 17.44,63.74 L18.41,64.03 C18.06,64.71 17.64,65.47 17.3,65.95 Z M26.06,68.61 L25.1,68.61 C25.13,68.27 25.14,67.71 25.14,67.22 C24.3,67.69 23.77,68.14 23.77,68.72 C23.77,69.4 24.41,69.53 25.41,69.53 C26.21,69.53 27.29,69.43 28.16,69.27 L28.13,70.28 C27.41,70.37 26.27,70.45 25.38,70.45 C23.9,70.45 22.75,70.11 22.75,68.88 C22.75,67.66 23.94,66.89 25.08,66.31 C24.96,65.96 24.64,65.82 24.28,65.82 C23.66,65.82 23.06,66.14 22.64,66.53 C22.35,66.81 22.06,67.17 21.73,67.59 L20.88,66.95 C22.04,65.85 22.71,64.89 23.12,64.06 L22.83,64.06 C22.42,64.06 21.73,64.04 21.18,64 L21.18,63.07 C21.7,63.14 22.41,63.18 22.88,63.18 L23.46,63.18 C23.59,62.73 23.67,62.3 23.69,61.99 L24.72,62.07 C24.66,62.33 24.58,62.71 24.44,63.14 C25.42,63.1 26.46,63.01 27.37,62.85 L27.37,63.77 C26.4,63.92 25.18,64 24.11,64.04 C23.91,64.48 23.65,64.94 23.36,65.33 C23.67,65.15 24.23,65.04 24.62,65.04 C25.24,65.04 25.75,65.33 25.94,65.88 C26.55,65.59 27.06,65.38 27.53,65.17 C27.86,65.02 28.15,64.89 28.47,64.73 L28.86,65.65 C28.59,65.73 28.16,65.89 27.86,66.01 C27.35,66.2 26.71,66.47 26.02,66.79 C26.03,67.35 26.05,68.14 26.06,68.61 Z M32.74,65.99 L32.74,66.85 L37.26,66.85 L37.26,65.99 L32.74,65.99 Z M32.74,64.37 L32.74,65.22 L37.26,65.22 L37.26,64.37 L32.74,64.37 Z M32.74,62.77 L32.74,63.61 L37.26,63.61 L37.26,62.77 L32.74,62.77 Z M36.98,69.82 L38.26,69.82 C38.65,69.82 38.71,69.66 38.75,68.45 C38.95,68.62 39.36,68.76 39.62,68.83 C39.51,70.33 39.25,70.7 38.35,70.7 L36.87,70.7 C35.82,70.7 35.56,70.42 35.56,69.48 L35.56,67.67 L34.12,67.67 C33.89,69.26 33.27,70.28 30.93,70.81 C30.84,70.57 30.59,70.18 30.4,69.99 C32.45,69.59 32.94,68.86 33.13,67.67 L31.84,67.67 L31.84,61.94 L38.2,61.94 L38.2,67.67 L36.51,67.67 L36.51,69.48 C36.51,69.78 36.58,69.82 36.98,69.82 Z M45.95,64.78 L44.51,64.78 L44.51,65.51 L45.95,65.51 L45.95,64.78 Z M48.28,65.51 L48.28,64.78 L46.79,64.78 L46.79,65.51 L48.28,65.51 Z M46.79,66.94 L48.28,66.94 L48.28,66.19 L46.79,66.19 L46.79,66.94 Z M44.51,66.94 L45.95,66.94 L45.95,66.19 L44.51,66.19 L44.51,66.94 Z M44.51,67.64 L44.51,69.21 L43.64,69.21 L43.64,64.09 L46.21,64.09 C45.67,63.83 45.07,63.57 44.56,63.37 L45.16,62.87 C45.55,63.01 46.01,63.19 46.45,63.38 C46.83,63.19 47.22,62.95 47.55,62.71 L43.68,62.71 L43.68,61.98 L48.41,61.98 L48.6,61.93 L49.16,62.38 C48.64,62.86 47.95,63.36 47.25,63.74 C47.51,63.86 47.74,63.98 47.93,64.09 L49.16,64.09 L49.16,68.35 C49.16,68.77 49.09,68.98 48.8,69.11 C48.52,69.23 48.1,69.24 47.46,69.24 C47.43,69.01 47.32,68.7 47.21,68.49 C47.63,68.51 48.01,68.5 48.13,68.5 C48.24,68.5 48.28,68.46 48.28,68.34 L48.28,67.64 L46.79,67.64 L46.79,69.18 L45.95,69.18 L45.95,67.64 L44.51,67.64 Z M42.94,63.39 L42.25,64.06 C41.93,63.57 41.21,62.87 40.58,62.41 L41.23,61.83 C41.85,62.26 42.6,62.91 42.94,63.39 Z M42.69,65.49 L42.69,68.69 C43.12,69.39 43.91,69.69 45.01,69.74 C46.14,69.79 48.44,69.76 49.71,69.67 C49.61,69.88 49.46,70.31 49.41,70.58 C48.26,70.63 46.16,70.65 45,70.61 C43.76,70.56 42.9,70.23 42.29,69.46 C41.81,69.87 41.31,70.28 40.75,70.7 L40.31,69.78 C40.77,69.5 41.32,69.12 41.8,68.74 L41.8,66.35 L40.43,66.35 L40.43,65.49 L42.69,65.49 Z M52.29,62.17 L53.55,62.18 C53.49,62.54 53.46,62.96 53.44,63.31 C53.4,64.41 53.32,66.69 53.32,68.07 C53.32,69.11 53.98,69.47 54.83,69.47 C56.57,69.47 57.6,68.49 58.31,67.43 L59.02,68.3 C58.36,69.24 57.03,70.52 54.81,70.52 C53.3,70.52 52.29,69.87 52.29,68.23 C52.29,66.82 52.39,64.27 52.39,63.31 C52.39,62.9 52.36,62.5 52.29,62.17 Z M63.5,69.89 L62.65,70.61 C62.02,69.84 61.17,68.99 60.47,68.4 L61.29,67.68 C62,68.26 62.93,69.2 63.5,69.89 Z M79.41,66.54 L75.96,66.54 C76.85,67.75 78.29,68.9 79.65,69.49 C79.43,69.68 79.14,70.05 78.97,70.29 C77.71,69.66 76.43,68.53 75.48,67.29 L75.48,70.78 L74.5,70.78 L74.5,67.33 C73.55,68.56 72.27,69.64 71.02,70.28 C70.86,70.05 70.55,69.69 70.34,69.49 C71.7,68.89 73.13,67.75 74.01,66.54 L70.63,66.54 L70.63,65.62 L74.5,65.62 L74.5,64.1 L71.35,64.1 L71.35,63.18 L74.5,63.18 L74.5,61.61 L75.48,61.61 L75.48,63.18 L78.71,63.18 L78.71,64.1 L75.48,64.1 L75.48,65.62 L79.41,65.62 L79.41,66.54 Z M89.42,66.87 L86.1,66.87 C86.98,68.01 88.36,69.08 89.65,69.64 C89.45,69.83 89.15,70.18 89,70.43 C87.73,69.79 86.43,68.66 85.49,67.42 L85.49,70.79 L84.51,70.79 L84.51,67.44 C83.57,68.67 82.27,69.77 81.01,70.4 C80.86,70.16 80.56,69.81 80.35,69.62 C81.65,69.07 83.03,68.01 83.93,66.87 L80.59,66.87 L80.59,65.97 L84.51,65.97 L84.51,63.65 L81.06,63.65 L81.06,62.76 L84.51,62.76 L84.51,61.61 L85.49,61.61 L85.49,62.76 L89.02,62.76 L89.02,63.65 L85.49,63.65 L85.49,65.97 L89.42,65.97 L89.42,66.87 Z M81.81,64.08 L82.63,63.77 C83.01,64.34 83.4,65.09 83.53,65.59 L82.65,65.94 C82.53,65.45 82.18,64.66 81.81,64.08 Z M87.3,65.95 L86.5,65.68 C86.83,65.15 87.22,64.33 87.44,63.74 L88.41,64.03 C88.06,64.71 87.64,65.47 87.3,65.95 Z M96.06,68.61 L95.1,68.61 C95.13,68.27 95.14,67.71 95.14,67.22 C94.3,67.69 93.77,68.14 93.77,68.72 C93.77,69.4 94.41,69.53 95.41,69.53 C96.21,69.53 97.29,69.43 98.16,69.27 L98.13,70.28 C97.41,70.37 96.27,70.45 95.38,70.45 C93.9,70.45 92.75,70.11 92.75,68.88 C92.75,67.66 93.94,66.89 95.08,66.31 C94.96,65.96 94.64,65.82 94.28,65.82 C93.66,65.82 93.06,66.14 92.64,66.53 C92.35,66.81 92.06,67.17 91.73,67.59 L90.88,66.95 C92.04,65.85 92.71,64.89 93.12,64.06 L92.83,64.06 C92.42,64.06 91.73,64.04 91.18,64 L91.18,63.07 C91.7,63.14 92.41,63.18 92.88,63.18 L93.46,63.18 C93.59,62.73 93.67,62.3 93.69,61.99 L94.72,62.07 C94.66,62.33 94.58,62.71 94.44,63.14 C95.42,63.1 96.46,63.01 97.37,62.85 L97.37,63.77 C96.4,63.92 95.18,64 94.11,64.04 C93.91,64.48 93.65,64.94 93.36,65.33 C93.67,65.15 94.23,65.04 94.62,65.04 C95.24,65.04 95.75,65.33 95.94,65.88 C96.55,65.59 97.06,65.38 97.53,65.17 C97.86,65.02 98.15,64.89 98.47,64.73 L98.86,65.65 C98.59,65.73 98.16,65.89 97.86,66.01 C97.35,66.2 96.71,66.47 96.02,66.79 C96.03,67.35 96.05,68.14 96.06,68.61 Z M104.54,65.3 L102.17,65.3 L102.17,65.78 L104.54,65.78 L104.54,65.3 Z M102.15,66.86 L104.54,66.86 L104.54,66.36 L102.17,66.36 C102.17,66.52 102.16,66.69 102.15,66.86 Z M104.71,68.73 L102.68,68.73 L102.68,69.71 L104.71,69.71 L104.71,68.73 Z M105.37,67.53 L102.09,67.53 C102.07,67.7 102.05,67.88 102.02,68.05 L105.53,68.05 L105.53,70.71 L104.71,70.71 L104.71,70.41 L102.68,70.41 L102.68,70.77 L101.88,70.77 L101.88,68.67 C101.7,69.36 101.41,70.03 100.97,70.57 C100.84,70.41 100.51,70.11 100.34,70.01 C101.26,68.87 101.36,67.3 101.36,66.17 L101.36,64.63 L105.37,64.63 L105.37,67.53 Z M102.56,63.52 L104.56,63.52 C104.21,63.17 103.81,62.81 103.45,62.52 C103.2,62.83 102.91,63.18 102.56,63.52 Z M102.89,61.72 L103.73,61.72 C104.45,62.26 105.37,63.04 105.87,63.55 L105.26,64.25 C105.1,64.07 104.9,63.86 104.67,63.62 L104.67,64.17 L102.3,64.17 L102.3,63.77 C101.9,64.15 101.44,64.52 100.9,64.86 C100.79,64.66 100.51,64.34 100.33,64.21 C101.53,63.5 102.41,62.52 102.89,61.72 Z M106.97,62.81 L106.97,68.33 L106.1,68.33 L106.1,62.81 L106.97,62.81 Z M108.29,61.81 L109.19,61.81 L109.19,69.63 C109.19,70.18 109.07,70.45 108.72,70.61 C108.38,70.76 107.82,70.79 106.94,70.78 C106.9,70.53 106.76,70.11 106.64,69.84 C107.27,69.87 107.85,69.86 108.05,69.86 C108.21,69.85 108.29,69.79 108.29,69.62 L108.29,61.81 Z M112.42,62.04 L113.5,62.08 C113.32,62.7 113.13,63.9 113.07,64.53 C113.5,63.62 114.46,62.56 115.65,62.56 C117,62.56 118,63.89 118,66.02 C118,68.78 116.27,70.05 113.75,70.51 L113.15,69.61 C115.32,69.27 116.94,68.47 116.94,66.02 C116.94,64.48 116.43,63.47 115.48,63.47 C114.28,63.47 113.18,65.25 113.1,66.55 C113.06,66.88 113.07,67.22 113.13,67.69 L112.16,67.76 C112.11,67.39 112.04,66.81 112.04,66.16 C112.04,65.23 112.21,63.87 112.34,62.97 C112.38,62.64 112.41,62.3 112.42,62.04 Z M127.97,66.64 L128.93,66.64 L128.93,70.77 L127.97,70.77 L127.97,70.18 L122.06,70.18 L122.06,70.79 L121.12,70.79 L121.12,66.64 L122.06,66.64 L122.06,69.27 L124.47,69.27 L124.47,66.04 L121.5,66.04 L121.5,62.55 L122.43,62.55 L122.43,65.14 L124.47,65.14 L124.47,61.68 L125.42,61.68 L125.42,65.14 L127.56,65.14 L127.56,62.54 L128.54,62.54 L128.54,66.04 L125.42,66.04 L125.42,69.27 L127.97,69.27 L127.97,66.64 Z M133.9,66.69 C133.9,67.24 134.32,67.57 134.8,67.57 C135.31,67.57 135.69,67.16 135.56,66.22 C135.4,65.9 135.12,65.76 134.79,65.76 C134.34,65.76 133.9,66.1 133.9,66.69 Z M139.27,63.26 L139.26,64.2 C138.67,64.17 137.74,64.15 136.3,64.15 C136.31,64.68 136.31,65.26 136.31,65.7 C136.54,66.06 136.66,66.51 136.66,67.02 C136.66,68.34 135.96,69.89 133.61,70.57 L132.76,69.73 C133.92,69.47 134.83,69.04 135.31,68.3 C135.11,68.39 134.88,68.44 134.62,68.44 C133.82,68.44 132.95,67.84 132.95,66.71 C132.95,65.67 133.8,64.93 134.8,64.93 C135,64.93 135.18,64.95 135.35,65 L135.34,64.16 C133.84,64.18 132.22,64.24 130.99,64.32 L130.96,63.36 C132.08,63.35 133.92,63.29 135.33,63.27 C135.32,63.06 135.32,62.88 135.31,62.77 C135.29,62.52 135.26,62.19 135.23,62.05 L136.37,62.05 C136.35,62.18 136.32,62.63 136.32,62.77 C136.31,62.89 136.31,63.06 136.31,63.26 L139.27,63.26 Z M0.97,85 L0.97,77.64 L2.16,77.64 L4.6,81.96 L5.37,83.52 L5.42,83.52 C5.36,82.76 5.27,81.87 5.27,81.07 L5.27,77.64 L6.37,77.64 L6.37,85 L5.18,85 L2.74,80.66 L1.97,79.12 L1.92,79.12 C1.98,79.88 2.07,80.73 2.07,81.53 L2.07,85 L0.97,85 Z M9.47,78.57 L9.47,81.1 L10.58,81.1 C11.65,81.1 12.23,80.66 12.23,79.77 C12.23,78.88 11.65,78.57 10.58,78.57 L9.47,78.57 Z M13.64,85 L12.33,85 L10.66,82.03 L9.47,82.03 L9.47,85 L8.31,85 L8.31,77.64 L10.72,77.64 C12.24,77.64 13.38,78.18 13.38,79.77 C13.38,80.91 12.77,81.59 11.84,81.88 L13.64,85 Z M14.86,85 L14.86,77.64 L16.02,77.64 L16.02,85 L14.86,85 Z M19.7,83.42 C20.13,83.42 20.61,82.78 21.07,81.25 C21.32,80.47 21.51,79.57 21.61,78.7 C19.83,78.99 18.79,80.54 18.79,81.76 C18.79,82.9 19.3,83.42 19.7,83.42 Z M22.36,85.33 L21.77,84.39 C22.12,84.36 22.41,84.31 22.65,84.25 C23.92,83.96 25.05,83.04 25.05,81.44 C25.05,80 24.19,78.87 22.67,78.68 C22.53,79.57 22.35,80.53 22.08,81.46 C21.48,83.48 20.66,84.61 19.67,84.61 C18.69,84.61 17.79,83.5 17.79,81.85 C17.79,79.65 19.74,77.74 22.22,77.74 C24.6,77.74 26.11,79.4 26.11,81.48 C26.11,83.55 24.78,84.99 22.36,85.33 Z M35.64,78.37 C35.99,78.37 36.27,78.1 36.27,77.75 C36.27,77.41 35.99,77.13 35.64,77.13 C35.3,77.13 35.02,77.41 35.02,77.75 C35.02,78.1 35.3,78.37 35.64,78.37 Z M29.25,78.04 L34.1,78.04 C34.22,78.04 34.37,78.04 34.52,78.02 C34.5,77.93 34.49,77.84 34.49,77.75 C34.49,77.12 35.01,76.6 35.64,76.6 C36.28,76.6 36.8,77.12 36.8,77.75 C36.8,78.39 36.28,78.9 35.64,78.9 C35.55,78.9 35.46,78.89 35.38,78.87 L35.33,79.06 C35.11,80.08 34.64,81.66 33.83,82.73 C32.92,83.91 31.67,84.87 29.86,85.44 L29,84.5 C30.96,84.02 32.09,83.16 32.91,82.12 C33.6,81.24 34.03,79.96 34.16,79.05 L29.25,79.05 C28.82,79.05 28.42,79.07 28.17,79.08 L28.17,77.97 C28.45,78.01 28.92,78.04 29.25,78.04 Z M44.6,79.06 L39.41,79.06 L39.41,83.56 L44.6,83.56 L44.6,79.06 Z M45.65,78.91 L45.65,83.82 C45.65,84.17 45.67,85.03 45.67,85.11 L44.58,85.11 C44.59,85.06 44.59,84.83 44.6,84.55 L39.42,84.55 C39.42,84.82 39.42,85.06 39.43,85.11 L38.35,85.11 C38.35,85.02 38.37,84.22 38.37,83.82 L38.37,78.91 C38.37,78.65 38.37,78.31 38.36,78.04 C38.75,78.06 39.07,78.06 39.32,78.06 L44.75,78.06 C44.98,78.06 45.34,78.06 45.67,78.05 C45.65,78.32 45.65,78.63 45.65,78.91 Z M54.94,77.85 L55.71,78.35 C55.63,78.51 55.58,78.73 55.53,78.93 C55.31,79.95 54.85,81.54 54.04,82.6 C53.13,83.78 51.88,84.74 50.06,85.31 L49.21,84.37 C51.16,83.89 52.29,83.04 53.11,81.99 C53.8,81.12 54.23,79.84 54.36,78.92 L49.45,78.92 C49.02,78.92 48.62,78.94 48.37,78.96 L48.37,77.84 C48.65,77.88 49.12,77.92 49.45,77.92 L54.3,77.92 C54.47,77.92 54.72,77.91 54.94,77.85 Z M62.47,84.17 L64.78,84.17 C65.04,84.17 65.29,84.14 65.49,84.11 L65.49,85.15 C65.28,85.13 64.95,85.12 64.78,85.12 L59.25,85.12 C59.02,85.12 58.75,85.13 58.49,85.15 L58.49,84.11 C58.74,84.14 59.02,84.17 59.25,84.17 L61.44,84.17 L61.44,80.69 L59.73,80.69 C59.54,80.69 59.2,80.7 58.99,80.72 L58.99,79.72 C59.21,79.75 59.54,79.77 59.72,79.77 L64.31,79.77 C64.56,79.77 64.83,79.75 65.05,79.72 L65.05,80.72 C64.82,80.7 64.54,80.69 64.31,80.69 L62.47,80.69 L62.47,84.17 Z M71.91,79.16 C72.09,79.58 72.58,80.89 72.71,81.33 L71.77,81.67 C71.65,81.2 71.2,79.95 70.97,79.47 L71.91,79.16 Z M74.46,79.45 L75.56,79.8 C75.47,80.05 75.41,80.23 75.37,80.4 C75.1,81.46 74.67,82.52 73.97,83.41 C73.05,84.59 71.81,85.39 70.68,85.83 L69.85,84.98 C70.98,84.66 72.3,83.9 73.13,82.87 C73.82,82.01 74.32,80.71 74.46,79.45 Z M69.58,79.68 C69.81,80.14 70.31,81.41 70.5,81.95 L69.55,82.3 C69.38,81.77 68.86,80.41 68.64,80.02 L69.58,79.68 Z M80.02,77.21 C80.64,77.56 81.77,78.3 82.24,78.64 L81.65,79.5 C81.14,79.13 80.07,78.42 79.45,78.07 L80.02,77.21 Z M78.37,84.34 C79.48,84.15 80.7,83.78 81.75,83.2 C83.42,82.25 84.77,80.91 85.58,79.49 L86.18,80.55 C85.29,81.91 83.9,83.19 82.28,84.13 C81.27,84.72 79.87,85.2 78.96,85.37 L78.37,84.34 Z M78.5,79.48 C79.13,79.82 80.27,80.52 80.74,80.85 L80.16,81.74 C79.63,81.36 78.57,80.68 77.93,80.34 L78.5,79.48 Z M94.8,85.64 L93.8,85.64 C93.81,85.55 93.81,85.39 93.81,85.24 L89.89,85.24 C89.59,85.24 89.22,85.26 89.05,85.26 L89.05,84.28 C89.22,84.3 89.54,84.32 89.89,84.32 L93.81,84.32 L93.81,82.74 L90.39,82.74 C90.02,82.74 89.62,82.74 89.4,82.76 L89.4,81.81 C89.63,81.82 90.02,81.84 90.38,81.84 L93.81,81.84 L93.81,80.37 L90.28,80.37 C89.97,80.37 89.37,80.39 89.17,80.41 L89.17,79.44 C89.39,79.47 89.97,79.48 90.28,79.48 L94.11,79.48 C94.34,79.48 94.65,79.47 94.79,79.47 C94.78,79.59 94.78,79.85 94.78,80.05 L94.78,85.04 C94.78,85.2 94.79,85.48 94.8,85.64 Z M102.79,79.49 L105.27,79.49 C105.66,79.49 106.05,79.47 106.23,79.45 L106.23,80.52 C106.05,80.5 105.61,80.49 105.26,80.49 L102.79,80.49 C102.75,82.6 102.06,84.23 99.98,85.46 L99,84.73 C100.93,83.84 101.66,82.37 101.71,80.49 L98.94,80.49 C98.54,80.49 98.16,80.5 97.91,80.52 L97.91,79.44 C98.15,79.46 98.54,79.49 98.92,79.49 L101.71,79.49 L101.71,78.26 C101.71,77.94 101.67,77.44 101.6,77.18 L102.86,77.18 C102.81,77.44 102.79,77.96 102.79,78.26 L102.79,79.49 Z M108.48,85.33 L107.53,84.69 C108.39,84.08 108.96,83.18 109.25,82.26 C109.54,81.37 109.54,79.42 109.54,78.27 C109.54,77.93 109.52,77.69 109.46,77.46 L110.62,77.46 C110.61,77.54 110.57,77.91 110.57,78.26 C110.57,79.4 110.53,81.53 110.26,82.53 C109.96,83.63 109.33,84.61 108.48,85.33 Z M112.79,85.33 L112.13,84.78 C112.17,84.61 112.2,84.38 112.2,84.15 L112.2,78.23 C112.2,77.82 112.14,77.49 112.14,77.43 L113.3,77.43 C113.29,77.49 113.25,77.82 113.25,78.23 L113.25,83.76 C114.12,83.37 115.25,82.52 115.97,81.46 L116.57,82.32 C115.72,83.45 114.32,84.5 113.17,85.08 C113,85.16 112.9,85.25 112.79,85.33 Z M122.33,81.04 L122.33,80.12 C122.86,80.06 123.54,80.02 124.18,80.02 C124.75,80.02 125.35,80.05 125.91,80.11 L125.88,81.06 C125.38,81 124.79,80.94 124.2,80.94 C123.55,80.94 122.94,80.97 122.33,81.04 Z M123.03,78.2 L123.03,79.19 C122.41,79.33 121.72,79.44 121.04,79.52 C120.95,79.95 120.84,80.39 120.73,80.81 C120.37,82.21 119.71,84.25 119.17,85.37 L118.07,85 C118.67,83.99 119.38,81.95 119.75,80.56 C119.84,80.26 119.92,79.93 119.99,79.61 C119.71,79.62 119.45,79.63 119.2,79.63 C118.74,79.63 118.38,79.61 118.02,79.59 L118,78.61 C118.48,78.67 118.83,78.69 119.21,78.69 C119.52,78.69 119.85,78.68 120.2,78.65 C120.25,78.36 120.3,78.1 120.32,77.92 C120.36,77.6 120.37,77.24 120.35,77.02 L121.56,77.11 C121.49,77.36 121.41,77.76 121.37,77.96 L121.25,78.54 C121.85,78.46 122.46,78.34 123.03,78.2 Z M121.78,82.47 L122.72,82.56 C122.64,82.87 122.58,83.18 122.58,83.42 C122.58,83.87 122.82,84.27 124.08,84.27 C124.73,84.27 125.41,84.19 126.06,84.07 L126.03,85.08 C125.48,85.16 124.82,85.22 124.07,85.22 C122.46,85.22 121.63,84.69 121.63,83.71 C121.63,83.3 121.7,82.88 121.78,82.47 Z M134.83,78.03 L134.84,78.98 C133.75,79.17 132.16,79.34 130.87,79.4 C130.71,80.13 130.51,80.94 130.32,81.47 C131.16,80.93 131.94,80.71 132.96,80.71 C134.55,80.71 135.53,81.54 135.53,82.75 C135.53,84.88 133.41,85.67 130.32,85.34 L130.04,84.33 C132.28,84.66 134.49,84.33 134.49,82.77 C134.49,82.1 133.92,81.57 132.85,81.57 C131.68,81.57 130.63,81.97 130,82.74 C129.89,82.88 129.8,83.02 129.71,83.19 L128.78,82.86 C129.27,81.9 129.67,80.53 129.92,79.42 C129.27,79.41 128.65,79.38 128.11,79.33 L128.11,78.35 C128.68,78.45 129.45,78.52 130.06,78.52 L130.1,78.52 C130.14,78.31 130.17,78.13 130.19,77.98 C130.23,77.62 130.25,77.38 130.23,77.09 L131.35,77.14 C131.26,77.44 131.2,77.76 131.15,78.05 L131.06,78.49 C132.22,78.44 133.63,78.29 134.83,78.03 Z" id="未来を見通し、未来を創り出す-NRIのプ"></path>
            </g>
        </g>
    </g>
</svg>